<svg id="Layer_1" data-name="Layer 1" xmlns="http://www.w3.org/2000/svg" viewBox="0 0 218.62 214.47"><defs><style>.cls-1{fill:none;}.cls-2{opacity:0.45;}.cls-3{fill:#e6e7e7;opacity:0.75;}.cls-4{fill:#6e6f72;}.cls-5,.cls-7{fill:#fff;}.cls-5{opacity:0.9;}.cls-6{fill:#818285;}.cls-8{fill:#010101;}.cls-9{fill:#202020;}</style></defs><title>Kitty Fade Pattern</title><rect class="cls-1" width="218.62" height="214.47"/><g class="cls-2"><path class="cls-3" d="M222.47,265.59a225.65,225.65,0,0,0-19.29-67.34c-2.1,6.91-5,14.72-11.79,17.22-4.86,1.8-10.46.16-14.63-2.93s-7.18-7.43-10.12-11.7c.14,4.88,1,8.92.25,13.74-2.12,13.41-13.15,23.87-25.3,29.92-11.68,5.81-24.21,6.51-36.29,11.34-9.08,3.63-17.57,9.49-22.59,17.88-5.82,9.71-6.38,21.94-3.44,32.87,3,11.3,9.88,21.81,19.86,27.92C113,343,135.65,341,146.67,328.27a24.73,24.73,0,0,0,5.7-16.45c8.08,2.38,16.76.28,22.11-5.41,2.65-2.82,4.54-6.82,3.78-11,3.38,5.25,9.43,8.53,15.65,9.28A26.64,26.64,0,0,0,221,288.63C223.93,281.41,223.42,273.31,222.47,265.59Z"/><path class="cls-4" d="M152.5,313.49a27.87,27.87,0,0,1-1.69,7.46,25.29,25.29,0,0,1-1.63,3.45,22.4,22.4,0,0,1-2.17,3.13c-.39.5-.84,1-1.27,1.42-.21.24-.45.45-.68.68s-.45.45-.69.66l-.72.63-.36.31-.38.3-.76.59c-.25.19-.52.37-.78.55a34,34,0,0,1-3.26,2,37.84,37.84,0,0,1-3.48,1.62,38.57,38.57,0,0,1-6.55,2c-.68.16-1.4.26-2.14.4l-1.13.15-.59.08-.59.06a43.26,43.26,0,0,1-5,.21,40.61,40.61,0,0,1-11.08-1.7,33,33,0,0,1-5.49-2.18,27.17,27.17,0,0,1-2.58-1.46L98.18,333c-.42-.27-.8-.59-1.2-.87a42.23,42.23,0,0,1-8.15-8.09,48,48,0,0,1-5.26-8.63,54.25,54.25,0,0,1-2.78-7.19c-.59-2-.9-3.41-1.06-4.12a53.79,53.79,0,0,1-.92-6.08,48.1,48.1,0,0,1-.11-7.14,43,43,0,0,1,1.14-7.49,34.8,34.8,0,0,1,2.56-7A33.81,33.81,0,0,1,86,270.62c.64-.85,1.31-1.6,1.94-2.31s1.27-1.34,1.87-1.9a44.5,44.5,0,0,1,4.33-3.62l.52-.38.53-.36,1.07-.71c.72-.46,1.44-.92,2.19-1.34,1.47-.87,3-1.65,4.56-2.38a72.63,72.63,0,0,1,9.66-3.59c6.61-2,13.44-3.27,20.1-5.37a63,63,0,0,0,9.38-3.73,60.76,60.76,0,0,0,8.63-5.25,51.69,51.69,0,0,0,7.54-6.72,40.18,40.18,0,0,0,5.88-8.23,13.66,13.66,0,0,0,.69-1.38l.65-1.4.55-1.44a14.77,14.77,0,0,0,.5-1.46l.43-1.49.11-.37c0-.12.05-.25.08-.37l.15-.76c.1-.51.21-1,.3-1.52l.11-.77.08-.77a38.38,38.38,0,0,0-.05-6.16l-.24-3-.06-.82v-.59l.38.54.57.81c.62.87,1.25,1.74,1.91,2.58a37.61,37.61,0,0,0,4.31,4.79,20.15,20.15,0,0,0,10.3,5.35,16.31,16.31,0,0,0,3,.2,14.12,14.12,0,0,0,3-.44,13.51,13.51,0,0,0,5.18-2.85,18.9,18.9,0,0,0,3.69-4.58,35.12,35.12,0,0,0,2.5-5.26c.34-.91.67-1.82,1-2.73l.27-.81.07-.23,0-.11,0,.11.73,1.64c.4.87.77,1.75,1.14,2.63a227.71,227.71,0,0,1,10.77,31.51,252.74,252.74,0,0,1,6.24,32.7,59,59,0,0,1,.46,9.93,36.68,36.68,0,0,1-.54,4.91,27.49,27.49,0,0,1-1.31,4.74l-.21.58c-.08.19-.17.37-.25.56l-.51,1.12a5.52,5.52,0,0,1-.28.54l-.3.53c-.21.36-.4.72-.62,1.07a25.88,25.88,0,0,1-18.85,11.63A24.54,24.54,0,0,1,196,304a21.07,21.07,0,0,1-4-.59,22.15,22.15,0,0,1-7.42-3.27,19.84,19.84,0,0,1-3.1-2.61,18.62,18.62,0,0,1-2.45-3.22,16.28,16.28,0,0,1-2.19-7.67,15,15,0,0,1,1.79-7.74,12.2,12.2,0,0,1,2.46-3.11,11.15,11.15,0,0,1,3.35-2.08,12.54,12.54,0,0,1,3.86-.89c.33,0,.67,0,1,0l1,.05,1,.15c.33.05.64.15,1,.22a5.25,5.25,0,0,1,.67.22l.67.25.63.29.32.14.29.15a5.21,5.21,0,0,0,.47.24,3.13,3.13,0,0,1,.45.22l.87.47c-.17-.21-.3-.43-.46-.65a4,4,0,0,0-.26-.32,2.53,2.53,0,0,0-.35-.28,11,11,0,0,0-3.19-1.49,12.21,12.21,0,0,0-3.51-.5,12.94,12.94,0,0,0-6.82,1.95l-.75.5c-.24.18-.47.38-.7.57s-.24.19-.35.3l-.31.32c-.21.22-.44.42-.63.66a13.86,13.86,0,0,0-2,3,15.91,15.91,0,0,0-1.43,7,17.26,17.26,0,0,0,2.13,8,19.93,19.93,0,0,0,5.49,6.14A23.25,23.25,0,0,0,191.1,304a21.71,21.71,0,0,0,4.16.73,23.48,23.48,0,0,0,4.22,0,26.58,26.58,0,0,0,15.28-6.51,25.56,25.56,0,0,0,5.32-6.49A26.15,26.15,0,0,0,223,283.9a40.4,40.4,0,0,0,.8-8.35,83.52,83.52,0,0,0-.48-8.37c-.14-1.48-.39-2.95-.58-4.43a228.63,228.63,0,0,0-12.85-50.31c-.8-2.15-1.67-4.27-2.52-6.4L206,202.88c-.22-.53-.45-1.06-.69-1.58l-.73-1.65-1.12-2.49-.07-.16a1.31,1.31,0,0,0-.05.15l-.1.32-.21.65-.41,1.31-.34,1c-.09.27-.19.54-.28.8-.19.54-.38,1.07-.59,1.6a32,32,0,0,1-3,6.05,15.5,15.5,0,0,1-4.53,4.76,11.58,11.58,0,0,1-6.14,1.91,15.46,15.46,0,0,1-6.4-1.32,20.35,20.35,0,0,1-5.55-3.6,36.07,36.07,0,0,1-4.43-4.8c-.67-.87-1.32-1.75-2-2.65l-.55-.77L168,201.1l-1.85-2.69.11,2.8,0,.69,0,.72.08,1.2.24,3a37.78,37.78,0,0,1,.09,5.82,31.64,31.64,0,0,1-3.24,11.08,39.93,39.93,0,0,1-6.82,9.43l-.5.53-.53.51-1.06,1c-.35.35-.73.65-1.1,1l-1.11,1c-.78.6-1.54,1.22-2.33,1.79l-1.2.85-.6.43-.61.4a56.24,56.24,0,0,1-13.86,6.61c-4.89,1.61-10,2.7-15,3.94-2.89.7-5.78,1.44-8.63,2.34a63.66,63.66,0,0,0-8.38,3.25A54.11,54.11,0,0,0,94.3,261a42.51,42.51,0,0,0-6.6,5.6,36.76,36.76,0,0,0-5.25,6.9,36,36,0,0,0-3.39,7.95,44.86,44.86,0,0,0-1.42,17.09,54.8,54.8,0,0,0,4.45,16.56,50,50,0,0,0,5.25,9.07,42.2,42.2,0,0,0,7.19,7.68c.35.27.68.57,1,.83l1.06.78.53.4.56.36,1.1.72a32.94,32.94,0,0,0,4.73,2.42,34.27,34.27,0,0,0,5,1.62,35.35,35.35,0,0,0,5.2.9,51.94,51.94,0,0,0,10.43,0,39.84,39.84,0,0,0,4.47-.67c.74-.14,1.47-.34,2.2-.52l1.09-.32c.36-.1.72-.21,1.08-.34l1.07-.37,1-.42.53-.21.51-.23c.35-.15.69-.3,1-.47a35.36,35.36,0,0,0,3.94-2.23,29.39,29.39,0,0,0,3.59-2.78l.42-.38.4-.4.8-.8c.5-.57,1-1.11,1.48-1.72a23.46,23.46,0,0,0,4.09-8,23.15,23.15,0,0,0,.87-4.68,17.69,17.69,0,0,0,0-2.82c-.05-.6-.11-.84-.16-.69a2.37,2.37,0,0,0-.09.51Z"/></g><g class="cls-2"><path class="cls-3" d="M3.85,265.59a225.65,225.65,0,0,0-19.29-67.34c-2.1,6.91-5,14.72-11.79,17.22-4.87,1.8-10.46.16-14.63-2.93S-49,205.11-52,200.84c.15,4.88,1,8.92.26,13.74C-53.85,228-64.88,238.45-77,244.5c-11.68,5.81-24.21,6.51-36.29,11.34-9.08,3.63-17.57,9.49-22.59,17.88-5.82,9.71-6.38,21.94-3.44,32.87,3,11.3,9.88,21.81,19.86,27.92C-105.58,343-83,341-71.95,328.27a24.73,24.73,0,0,0,5.7-16.45c8.07,2.38,16.75.28,22.11-5.41,2.65-2.82,4.54-6.82,3.78-11,3.38,5.25,9.43,8.53,15.65,9.28A26.64,26.64,0,0,0,2.42,288.63C5.31,281.41,4.8,273.31,3.85,265.59Z"/><path class="cls-4" d="M-66.13,313.49A27.48,27.48,0,0,1-67.81,321a25.29,25.29,0,0,1-1.63,3.45,23.28,23.28,0,0,1-2.17,3.13c-.39.5-.85,1-1.27,1.42-.21.24-.46.45-.68.68s-.45.45-.69.66l-.72.63-.37.31-.37.3-.76.59c-.25.19-.52.37-.78.55a34,34,0,0,1-3.26,2A37.84,37.84,0,0,1-84,336.31a38.57,38.57,0,0,1-6.55,2c-.68.16-1.4.26-2.14.4l-1.13.15-.59.08L-95,339a43.26,43.26,0,0,1-5.05.21,40.61,40.61,0,0,1-11.08-1.7,33,33,0,0,1-5.49-2.18,28.64,28.64,0,0,1-2.59-1.46l-1.24-.82c-.42-.27-.8-.59-1.2-.87a42,42,0,0,1-8.15-8.09,48,48,0,0,1-5.26-8.63,52.89,52.89,0,0,1-2.78-7.19c-.59-2-.91-3.41-1.06-4.12a56,56,0,0,1-.93-6.08,49.54,49.54,0,0,1-.1-7.14,42,42,0,0,1,1.14-7.49,34.8,34.8,0,0,1,2.56-7,33.2,33.2,0,0,1,3.61-5.79c.64-.85,1.31-1.6,1.94-2.31s1.26-1.34,1.87-1.9a43.16,43.16,0,0,1,4.33-3.62l.52-.38.53-.36,1.06-.71c.73-.46,1.45-.92,2.2-1.34,1.47-.87,3-1.65,4.56-2.38a72.12,72.12,0,0,1,9.66-3.59c6.61-2,13.44-3.27,20.1-5.37a63,63,0,0,0,9.38-3.73,60.65,60.65,0,0,0,8.62-5.25A51.25,51.25,0,0,0-60.29,233a40.18,40.18,0,0,0,5.88-8.23,13.66,13.66,0,0,0,.69-1.38l.65-1.4.55-1.44a14.77,14.77,0,0,0,.5-1.46l.43-1.49.11-.37c0-.12,0-.25.08-.37l.15-.76c.1-.51.21-1,.3-1.52l.1-.77.08-.77a37.25,37.25,0,0,0,0-6.16l-.24-3-.06-.82,0-.31v-.28l.38.54.57.81c.62.87,1.25,1.74,1.91,2.58A37.61,37.61,0,0,0-44,211.12a20.15,20.15,0,0,0,10.3,5.35,16.31,16.31,0,0,0,3,.2,14.12,14.12,0,0,0,2.95-.44,13.51,13.51,0,0,0,5.18-2.85,18.9,18.9,0,0,0,3.69-4.58,35.12,35.12,0,0,0,2.5-5.26c.34-.91.67-1.82,1-2.73l.27-.81.07-.23,0-.11,0,.11.73,1.64c.39.87.77,1.75,1.14,2.63A226.35,226.35,0,0,1-2.35,235.55a251.09,251.09,0,0,1,6.25,32.7,61.22,61.22,0,0,1,.46,9.93,36.68,36.68,0,0,1-.54,4.91,27.49,27.49,0,0,1-1.31,4.74l-.21.58c-.08.19-.17.37-.25.56l-.51,1.12a5.52,5.52,0,0,1-.28.54l-.31.53c-.2.36-.39.72-.61,1.07a25.53,25.53,0,0,1-3,3.84,25.5,25.5,0,0,1-8,5.63,25.61,25.61,0,0,1-7.85,2.16,15.52,15.52,0,0,1-2,.13,15.41,15.41,0,0,1-2,0,21.29,21.29,0,0,1-4-.59A22.1,22.1,0,0,1-34,300.09a19.84,19.84,0,0,1-3.1-2.61,18.62,18.62,0,0,1-2.45-3.22,16.28,16.28,0,0,1-2.19-7.67A15,15,0,0,1-40,278.85a12,12,0,0,1,2.46-3.11,11.15,11.15,0,0,1,3.35-2.08,12.54,12.54,0,0,1,3.86-.89c.33,0,.66,0,1,0l1,.05,1,.15c.33.05.64.15,1,.22a5.39,5.39,0,0,1,.68.22l.67.25.63.29.31.14.29.15.48.24a3.74,3.74,0,0,1,.45.22c.28.15.57.3.86.47-.16-.21-.3-.43-.45-.65a4,4,0,0,0-.26-.32,2.53,2.53,0,0,0-.35-.28,11,11,0,0,0-3.19-1.49,12.21,12.21,0,0,0-3.51-.5,12.91,12.91,0,0,0-6.82,1.95l-.75.5c-.24.18-.47.38-.7.57s-.24.19-.35.3l-.31.32c-.21.22-.44.42-.63.66a13.5,13.5,0,0,0-2,3,15.77,15.77,0,0,0-1.43,7,17.26,17.26,0,0,0,2.13,8,19.93,19.93,0,0,0,5.49,6.14A23.25,23.25,0,0,0-27.52,304a21.71,21.71,0,0,0,4.16.73,18.52,18.52,0,0,0,2.11.1,18.52,18.52,0,0,0,2.11-.09,26.53,26.53,0,0,0,15.27-6.51,25.6,25.6,0,0,0,5.33-6.49,26.42,26.42,0,0,0,2.93-7.87,41.09,41.09,0,0,0,.79-8.35,80.65,80.65,0,0,0-.47-8.37c-.15-1.48-.39-2.95-.58-4.43A228.63,228.63,0,0,0-8.72,212.44c-.8-2.15-1.67-4.27-2.53-6.4l-1.34-3.16c-.21-.53-.44-1.06-.68-1.58l-.73-1.65-1.12-2.49-.07-.16a1.31,1.31,0,0,0-.05.15l-.1.32-.21.65-.41,1.31-.34,1c-.09.27-.19.54-.28.8-.19.54-.38,1.07-.59,1.6a32.66,32.66,0,0,1-3,6.05,15.62,15.62,0,0,1-4.53,4.76,11.58,11.58,0,0,1-6.14,1.91,15.46,15.46,0,0,1-6.4-1.32,20.35,20.35,0,0,1-5.55-3.6,36.07,36.07,0,0,1-4.43-4.8c-.67-.87-1.32-1.75-2-2.65l-.55-.77-.92-1.33-1.86-2.69.12,2.8,0,.69.05.72.08,1.2.24,3a37.77,37.77,0,0,1,.08,5.82,31.41,31.41,0,0,1-3.23,11.08,40.21,40.21,0,0,1-6.82,9.43l-.5.53-.53.51-1.06,1c-.35.35-.73.65-1.1,1l-1.11,1c-.78.6-1.54,1.22-2.33,1.79l-1.2.85-.6.43-.61.4a56.41,56.41,0,0,1-13.86,6.61c-4.89,1.61-10,2.7-15,3.94-2.89.7-5.78,1.44-8.63,2.34a63.66,63.66,0,0,0-8.38,3.25,54.11,54.11,0,0,0-7.48,4.34,42.51,42.51,0,0,0-6.6,5.6,36.76,36.76,0,0,0-5.25,6.9,36,36,0,0,0-3.4,7.95A45.05,45.05,0,0,0-141,298.58a54.78,54.78,0,0,0,4.44,16.56,50.64,50.64,0,0,0,5.26,9.07,42.2,42.2,0,0,0,7.19,7.68c.34.27.67.57,1,.83l1.06.78.53.4.55.36,1.11.72a32.43,32.43,0,0,0,4.73,2.42,34.27,34.27,0,0,0,5,1.62,35.35,35.35,0,0,0,5.2.9,51.94,51.94,0,0,0,10.43,0,39.84,39.84,0,0,0,4.47-.67c.74-.14,1.47-.34,2.2-.52l1.08-.32c.37-.1.73-.21,1.08-.34l1.07-.37,1.06-.42.52-.21.52-.23c.35-.15.69-.3,1-.47a36.28,36.28,0,0,0,3.94-2.23,29.29,29.29,0,0,0,3.58-2.78l.43-.38.4-.4.8-.8c.5-.57,1-1.11,1.48-1.72a23.46,23.46,0,0,0,4.09-8,22.37,22.37,0,0,0,.86-4.68,18,18,0,0,0,0-2.82c0-.6-.11-.84-.16-.69a2.37,2.37,0,0,0-.09.51Z"/></g><g class="cls-2"><path class="cls-5" d="M216.41,180.6a26.65,26.65,0,0,0,27.14,16.08c6.22-.76,12.26-4,15.64-9.28-.76,4.16,1.13,8.15,3.78,11,5.36,5.7,14,7.79,22.11,5.42a24.79,24.79,0,0,0,5.71,16.44c11,12.76,33.63,14.77,47.53,6.25,10-6.11,16.83-16.62,19.87-27.92,2.93-10.93,2.37-23.16-3.44-32.87-5-8.39-13.52-14.25-22.6-17.88-12.08-4.84-24.61-5.53-36.29-11.34-12.15-6.05-23.17-16.52-25.3-29.92-.76-4.82.11-8.87.26-13.74-2.94,4.27-6,8.62-10.13,11.7s-9.76,4.73-14.62,2.93c-6.78-2.5-9.69-10.31-11.8-17.22A225.63,225.63,0,0,0,215,157.56C214,165.28,213.53,173.38,216.41,180.6Z"/><path class="cls-4" d="M242.08,166l.41-.23.21-.12.22-.1.87-.38.9-.29c.3-.1.62-.14.93-.22a13.15,13.15,0,0,1,3.76-.19,12.56,12.56,0,0,1,6.82,2.87,6.76,6.76,0,0,1,.68.63c.21.23.44.44.64.69a12.79,12.79,0,0,1,1.1,1.52,14.07,14.07,0,0,1,1.52,3.43,16.54,16.54,0,0,1-.49,10.35,15.19,15.19,0,0,1-1.78,3.31,19.48,19.48,0,0,1-7.07,6.12,22.42,22.42,0,0,1-5.07,1.91,22.75,22.75,0,0,1-2.78.52c-.47.05-.95.07-1.43.11l-.72.06h-.73c-.48,0-1,0-1.46,0l-1.46-.14a14.75,14.75,0,0,1-1.46-.23,11.88,11.88,0,0,1-1.44-.3l-1.44-.38c-.47-.14-.93-.32-1.4-.48l-.69-.25-.68-.3-.67-.3a5.86,5.86,0,0,1-.67-.32l-1.29-.7c-.22-.11-.42-.24-.63-.37l-.61-.4-.61-.39c-.21-.13-.39-.29-.58-.43l-1.15-.88-1.06-1c-.17-.16-.36-.31-.52-.47l-.48-.51c-.32-.35-.65-.67-1-1l-.86-1.07a10.41,10.41,0,0,1-.79-1.09c-.24-.37-.5-.73-.73-1.1l-.63-1.14c-.1-.18-.21-.37-.3-.56l-.26-.57a24.51,24.51,0,0,1-1.6-4.49,29.85,29.85,0,0,1-.75-4.12l-.11-.93-.06-.9c0-.57-.06-1.12-.09-1.63,0-2.05,0-3.53.06-4.26.09-1.83.27-3.92.53-6.17.13-1.13.29-2.3.45-3.5s.32-2.43.52-3.67c.74-5,1.69-10.26,2.75-15.06s2.14-9.16,3-12.36c.42-1.6.83-2.91,1.1-3.86l.48-1.63q3-9.93,7-19.54c.32-.8.65-1.6,1-2.39l1-2.39,1.06-2.37.18-.4.07-.17s0,0,0,0v0l0,.08.11.34.16.5.21.62c.29.83.59,1.65.91,2.47a34.49,34.49,0,0,0,2.26,4.76,20.1,20.1,0,0,0,3.08,4.1,13.72,13.72,0,0,0,4.25,2.94,12.33,12.33,0,0,0,5.07,1.06,15.85,15.85,0,0,0,2.58-.21c.42-.09.85-.16,1.26-.27l.62-.17.62-.19a19.86,19.86,0,0,0,4.61-2.24,26,26,0,0,0,3.94-3.23,41.58,41.58,0,0,0,3.34-3.81c.52-.66,1-1.33,1.52-2l.73-1,.4-.56.38-.56s0,0,0,0v.39l0,.45-.15,1.9c-.12,1.47-.24,2.95-.27,4.45a27,27,0,0,0,.23,4.49l.08.56.11.55.22,1.1.11.55.06.28.08.27.31,1.08a34.45,34.45,0,0,0,3.66,8.17,40.84,40.84,0,0,0,5.51,7,52.13,52.13,0,0,0,8.91,7.4A60.33,60.33,0,0,0,299,138.53a84.53,84.53,0,0,0,11,3.58c3.72,1,7.46,1.84,11.15,2.84,2.68.72,5.35,1.49,7.94,2.43a62.38,62.38,0,0,1,7.59,3.3,52.46,52.46,0,0,1,7,4.37,40.79,40.79,0,0,1,6.08,5.51,34.41,34.41,0,0,1,4.73,6.66,35.8,35.8,0,0,1,3,7.59,44.87,44.87,0,0,1,1.2,16.33,49.4,49.4,0,0,1-5.95,18.8,44,44,0,0,1-13,14.72c-.56.4-1.15.76-1.72,1.14-.28.19-.58.36-.88.53s-.59.35-.89.51c-.61.31-1.21.63-1.84.9-.31.14-.62.29-.94.42l-1,.38a38.12,38.12,0,0,1-8,2.07,42.88,42.88,0,0,1-16.38-.74,38.55,38.55,0,0,1-7.73-2.78,31.4,31.4,0,0,1-6.82-4.51,23.38,23.38,0,0,1-5.19-6.24,24,24,0,0,1-2.68-7.65c-.18-.95-.26-2-.38-2.86,0-.37-.11-.71-.17-1l-.17-1a5.9,5.9,0,0,0-.34,1.62,24.5,24.5,0,0,0,4.15,13.34,28.83,28.83,0,0,0,10.88,9,37.3,37.3,0,0,0,3.8,1.61,40.68,40.68,0,0,0,3.94,1.19c1.33.34,2.68.59,4,.81s2.72.36,4.08.44,2.81.1,4.21.07a42,42,0,0,0,4.19-.35,38.33,38.33,0,0,0,8.17-2c.33-.11.66-.25,1-.38l1-.4c.64-.3,1.28-.57,1.9-.91.31-.16.63-.31.93-.49l.92-.53c.6-.36,1.17-.76,1.76-1.14a42.14,42.14,0,0,0,6.41-5.43,48.75,48.75,0,0,0,9.27-13.91,53.43,53.43,0,0,0,4.4-16.14c.07-.74.12-1.49.16-2.23s0-1.5.05-2.25a47.42,47.42,0,0,0-.46-6.52,40.71,40.71,0,0,0-1.47-6.38l-.52-1.55-.61-1.52c-.2-.52-.45-1-.68-1.5s-.46-1-.74-1.46a33.17,33.17,0,0,0-3.64-5.45,42.87,42.87,0,0,0-9.74-8.68,57.72,57.72,0,0,0-11.65-5.84c-8.63-3.25-17.76-4.68-26.38-7.56a67.51,67.51,0,0,1-6.33-2.48c-1-.49-2-1-3-1.51s-2-1.1-3-1.68a55.86,55.86,0,0,1-5.58-3.85l-.67-.52-.33-.26-.32-.27-1.29-1.11-.32-.27-.31-.29-.61-.59-.61-.58-.31-.29-.29-.31a39.72,39.72,0,0,1-5.51-6.91,33.59,33.59,0,0,1-3.69-8l-.31-1.06-.15-.53-.11-.53c-.14-.72-.31-1.44-.42-2.16a26.57,26.57,0,0,1-.26-4.38c0-1.47.14-3,.26-4.45l.09-1.12,0-.56.06-1c.05-.72.08-1.39.1-2.08l.08-2.06L269.58,93l-1.43,2c-.59.85-1.19,1.67-1.81,2.49a39.06,39.06,0,0,1-4,4.57,28.66,28.66,0,0,1-2.3,2,21.66,21.66,0,0,1-2.54,1.6,18.68,18.68,0,0,1-2.76,1.19,15.37,15.37,0,0,1-2.91.68,12.81,12.81,0,0,1-3.71,0,5.74,5.74,0,0,1-.9-.18,8.31,8.31,0,0,1-.89-.25,5.3,5.3,0,0,1-.86-.34l-.43-.18-.21-.09-.2-.12-.81-.45c-.27-.16-.51-.36-.76-.53s-.26-.18-.38-.28l-.35-.3c-.23-.21-.48-.4-.69-.63a18.11,18.11,0,0,1-2.37-2.92,29,29,0,0,1-1.82-3.33c-.53-1.16-1-2.34-1.44-3.55-.22-.6-.42-1.21-.63-1.82L235,91.28l-.54-1.73c-.3-2.16-.87.17-1.36,1L232,92.89c-2.45,5.42-4.73,10.93-6.71,16.54a220.43,220.43,0,0,0-8.77,33.07c-1.05,5.61-1.88,11.24-2.54,16.91a81.27,81.27,0,0,0-.54,8.56c0,1.43.06,2.87.18,4.3a40.89,40.89,0,0,0,.64,4.28,26.46,26.46,0,0,0,4.2,9.68,5.25,5.25,0,0,0,.4.53l.41.52c.29.34.54.71.85,1l.91,1c.16.16.3.33.47.48l.49.44,1,.9,1.06.81c.69.56,1.46,1,2.2,1.5a6.65,6.65,0,0,0,.58.33l.59.32c.39.2.77.44,1.18.61l1.22.54.62.26.63.22,1.26.43,1.29.34a25.29,25.29,0,0,0,2.62.52l.33.05.33,0,.66.06c.45,0,.89.09,1.34.09h2l.66-.06a21.25,21.25,0,0,0,5.24-1,25,25,0,0,0,9.16-5.11,18.79,18.79,0,0,0,3-3.45,16.35,16.35,0,0,0,2-4.15,17.27,17.27,0,0,0,.44-9.13,14.88,14.88,0,0,0-1.69-4.3c-.2-.33-.4-.66-.63-1-.12-.16-.22-.32-.34-.47l-.37-.45c-.24-.3-.53-.56-.8-.84a8.07,8.07,0,0,0-.87-.78,13.21,13.21,0,0,0-8.56-2.86,12.1,12.1,0,0,0-4.69,1.08,9.56,9.56,0,0,0-1.47.85l-.53.37-.38.35c-.44.42-.59.61-.44.57a2.48,2.48,0,0,0,.45-.26C241.37,166.48,241.66,166.25,242.08,166Z"/></g><g class="cls-2"><path class="cls-3" d="M222.47,51.12a225.74,225.74,0,0,0-19.29-67.34c-2.1,6.92-5,14.72-11.79,17.23-4.86,1.79-10.46.15-14.63-2.93s-7.18-7.44-10.12-11.71c.14,4.88,1,8.93.25,13.74C164.77,13.52,153.74,24,141.59,30c-11.68,5.81-24.21,6.51-36.29,11.34C96.22,45,87.73,50.87,82.71,59.26,76.89,69,76.33,81.2,79.27,92.13c3,11.3,9.88,21.8,19.86,27.91,13.91,8.52,36.52,6.52,47.54-6.24a24.73,24.73,0,0,0,5.7-16.44c8.08,2.37,16.76.28,22.11-5.42,2.65-2.82,4.54-6.82,3.78-11,3.38,5.25,9.43,8.52,15.65,9.27A26.62,26.62,0,0,0,221,74.17C223.93,66.94,223.42,58.85,222.47,51.12Z"/><path class="cls-6" d="M98.46,96.34A12.47,12.47,0,0,0,99.62,100a19.72,19.72,0,0,0,2,3.31,26.15,26.15,0,0,0,2.69,3.13A24.64,24.64,0,0,0,109,110a30.48,30.48,0,0,0,5,2.31c1.44.54,2.54.82,2.89.92a19.94,19.94,0,0,0,3.36.59,15.68,15.68,0,0,0,3.93-.14,10.34,10.34,0,0,0,3.15-1.07,7.41,7.41,0,0,0,1.26-.85,8.63,8.63,0,0,0,2.93-4.51,10.38,10.38,0,0,0,.34-2.66,11.92,11.92,0,0,0-.05-1.33c0-.22-.07-.43-.1-.65s-.06-.44-.11-.65a15,15,0,0,0-1.87-4.7,17.86,17.86,0,0,0-3.27-3.81,46.8,46.8,0,0,0-7.52-5.22c-1.62-1-3.24-1.89-4.78-2.93a28.89,28.89,0,0,1-4.3-3.47,17,17,0,0,1-2.47-3.09,13.94,13.94,0,0,1-1.56-3.54,9.6,9.6,0,0,1-.26-3.76,6.47,6.47,0,0,1,1.44-3.36,6,6,0,0,1,1.77-1.41,9.1,9.1,0,0,1,2.19-.8,18.64,18.64,0,0,1,4.73-.37,44.68,44.68,0,0,1,15.69,3.39,3.59,3.59,0,0,0,.67.24,1.94,1.94,0,0,0,.58-.06c-.07-.17-.08-.42-.22-.49a23.4,23.4,0,0,0-6.44-2.52c-1.31-.3-2.63-.52-4-.77a34.71,34.71,0,0,0-4.08-.51,29.78,29.78,0,0,0-4.12-.06,16.67,16.67,0,0,0-4.07.74,11.74,11.74,0,0,0-1.92.86,9.15,9.15,0,0,0-1.67,1.32,6.11,6.11,0,0,0-.66.94,7.35,7.35,0,0,0-1,3.14,9.92,9.92,0,0,0,.22,3.26,14.7,14.7,0,0,0,2.92,5.76c2.87,3.58,6.77,6.13,10.59,8.41a61.88,61.88,0,0,1,6.14,4,18.11,18.11,0,0,1,4.81,5.26,11.69,11.69,0,0,1,1.42,7,8.55,8.55,0,0,1-1.4,3.69,7.35,7.35,0,0,1-2.82,2.48,10.13,10.13,0,0,1-3.8,1,18.32,18.32,0,0,1-8-1.35,36.8,36.8,0,0,1-4.48-2.13,37.79,37.79,0,0,1-4.12-2.69c-.33-.25-.64-.51-1-.79a9.94,9.94,0,0,1-.83-.9,37,37,0,0,1-4.59-7.11A10,10,0,0,0,98.69,96C98.49,95.79,98.39,95.87,98.46,96.34Z"/><path class="cls-4" d="M152.5,99a27.87,27.87,0,0,1-1.69,7.46,25.29,25.29,0,0,1-1.63,3.45,21.82,21.82,0,0,1-2.17,3.13c-.39.5-.84,1-1.27,1.43-.21.23-.45.44-.68.67s-.45.45-.69.66l-.72.63-.36.31-.38.3-.76.59c-.25.19-.52.37-.78.56a34,34,0,0,1-3.26,2,35.37,35.37,0,0,1-3.48,1.62,37.68,37.68,0,0,1-6.55,2c-.68.16-1.4.26-2.14.4l-1.13.16-.59.07-.59.06a41.17,41.17,0,0,1-5,.21A40.59,40.59,0,0,1,107.5,123a34.85,34.85,0,0,1-5.49-2.18,29.64,29.64,0,0,1-2.58-1.47l-1.25-.82c-.42-.27-.8-.58-1.2-.87a41.9,41.9,0,0,1-8.15-8.08A48.11,48.11,0,0,1,83.57,101a54.19,54.19,0,0,1-2.78-7.18c-.59-2-.9-3.41-1.06-4.13a53.1,53.1,0,0,1-.92-6.08,48.1,48.1,0,0,1-.11-7.14A43,43,0,0,1,79.84,69a35,35,0,0,1,2.56-7A34.2,34.2,0,0,1,86,56.15c.64-.84,1.31-1.6,1.94-2.31S89.22,52.5,89.82,52a42.82,42.82,0,0,1,4.33-3.62l.52-.38.53-.36c.36-.24.71-.49,1.07-.72.72-.45,1.44-.92,2.19-1.34A50.45,50.45,0,0,1,103,43.16a70,70,0,0,1,9.66-3.59c6.61-2,13.44-3.28,20.1-5.38a63,63,0,0,0,9.38-3.73,59.85,59.85,0,0,0,8.63-5.25,51.62,51.62,0,0,0,7.54-6.71,40.18,40.18,0,0,0,5.88-8.23,14.8,14.8,0,0,0,.69-1.38l.65-1.4L166.1,6a14.77,14.77,0,0,0,.5-1.46L167,3.1l.11-.37c0-.13.05-.25.08-.38l.15-.76c.1-.5.21-1,.3-1.52l.11-.76.08-.77a38.36,38.36,0,0,0-.05-6.16l-.24-3-.06-.82v-.6h0l.38.54.57.82c.62.87,1.25,1.73,1.91,2.58a39,39,0,0,0,4.31,4.79A20.21,20.21,0,0,0,185,2a15.46,15.46,0,0,0,3,.2,13.49,13.49,0,0,0,3-.44,13.38,13.38,0,0,0,5.18-2.85,18.85,18.85,0,0,0,3.69-4.57,35.23,35.23,0,0,0,2.5-5.27c.34-.9.67-1.81,1-2.73l.27-.81.07-.23,0-.11,0,.11.73,1.64c.4.87.77,1.75,1.14,2.63a228.29,228.29,0,0,1,10.77,31.52,252.09,252.09,0,0,1,6.24,32.7,58.87,58.87,0,0,1,.46,9.92,36.5,36.5,0,0,1-.54,4.91,27.85,27.85,0,0,1-1.31,4.75l-.21.57c-.08.19-.17.38-.25.56l-.51,1.12a4.58,4.58,0,0,1-.28.54l-.3.54c-.21.35-.4.72-.62,1.06a25,25,0,0,1-3,3.84,26,26,0,0,1-15.81,7.8,24.54,24.54,0,0,1-4.08.09,22.78,22.78,0,0,1-4-.59,22.35,22.35,0,0,1-7.42-3.27,19.91,19.91,0,0,1-3.1-2.62A18.18,18.18,0,0,1,179,79.8a16.29,16.29,0,0,1-2.19-7.68,15,15,0,0,1,1.79-7.74,12.15,12.15,0,0,1,2.46-3.1,11,11,0,0,1,3.35-2.09,12.82,12.82,0,0,1,3.86-.88c.33,0,.67,0,1,0l1,0,1,.15c.33.06.64.15,1,.23a4,4,0,0,1,.67.22c.22.08.45.15.67.24l.63.3.32.13.29.16.47.23a4.71,4.71,0,0,1,.45.22l.87.47c-.17-.2-.3-.42-.46-.64l-.26-.33a1.91,1.91,0,0,0-.35-.27,11,11,0,0,0-3.19-1.5,11.86,11.86,0,0,0-3.51-.49A12.84,12.84,0,0,0,182,59.39l-.75.5-.7.58-.35.29-.31.33c-.21.22-.44.42-.63.66a13.79,13.79,0,0,0-2,3,15.91,15.91,0,0,0-1.43,7,17.22,17.22,0,0,0,2.13,8,19.82,19.82,0,0,0,5.49,6.14,23.08,23.08,0,0,0,7.59,3.65,21.69,21.69,0,0,0,4.16.72,24.78,24.78,0,0,0,4.22,0,26.66,26.66,0,0,0,15.28-6.52,25.39,25.39,0,0,0,5.32-6.49A26.09,26.09,0,0,0,223,69.44a40.5,40.5,0,0,0,.8-8.36,83.52,83.52,0,0,0-.48-8.37c-.14-1.47-.39-3-.58-4.42A228.86,228.86,0,0,0,209.9-2c-.8-2.15-1.67-4.27-2.52-6.39L206-11.59c-.22-.53-.45-1.05-.69-1.57l-.73-1.65-1.12-2.5-.07-.15a1.31,1.31,0,0,0-.05.15l-.1.32-.21.64L202.66-15l-.34,1-.28.81c-.19.53-.38,1.07-.59,1.59a32.13,32.13,0,0,1-3,6.06A15.72,15.72,0,0,1,194-.8a11.58,11.58,0,0,1-6.14,1.91,15.63,15.63,0,0,1-6.4-1.33,20.32,20.32,0,0,1-5.55-3.59,36.78,36.78,0,0,1-4.43-4.81c-.67-.86-1.32-1.75-2-2.65l-.55-.77L168-13.37,166.15-16l.11,2.79,0,.69,0,.72.08,1.2.24,3a37.91,37.91,0,0,1,.09,5.83A31.52,31.52,0,0,1,163.5,9.21a39.93,39.93,0,0,1-6.82,9.43l-.5.53c-.17.18-.35.34-.53.51l-1.06,1c-.35.35-.73.65-1.1,1l-1.11.95c-.78.6-1.54,1.22-2.33,1.8l-1.2.85-.6.42-.61.4a56.24,56.24,0,0,1-13.86,6.61c-4.89,1.61-10,2.7-15,3.94-2.89.71-5.78,1.44-8.63,2.34a63.66,63.66,0,0,0-8.38,3.25,54.11,54.11,0,0,0-7.48,4.34,42.51,42.51,0,0,0-6.6,5.6,37.08,37.08,0,0,0-5.25,6.9A36.18,36.18,0,0,0,79.06,67a44.87,44.87,0,0,0-1.42,17.09,54.8,54.8,0,0,0,4.45,16.56,50,50,0,0,0,5.25,9.07,42.2,42.2,0,0,0,7.19,7.68c.35.28.68.57,1,.83l1.06.79.53.39.56.36,1.1.73a33.94,33.94,0,0,0,4.73,2.41,35.55,35.55,0,0,0,5,1.63,38.2,38.2,0,0,0,5.2.9,53.46,53.46,0,0,0,10.43,0,39.87,39.87,0,0,0,4.47-.68c.74-.14,1.47-.34,2.2-.52L132,124c.36-.11.72-.22,1.08-.35l1.07-.37,1-.41.53-.21.51-.23,1-.47a33.91,33.91,0,0,0,3.94-2.24,29.39,29.39,0,0,0,3.59-2.78l.42-.37.4-.4c.27-.27.54-.53.8-.81.5-.56,1-1.11,1.48-1.71a23.55,23.55,0,0,0,4.09-8,23.28,23.28,0,0,0,.87-4.68,17.82,17.82,0,0,0,0-2.83c-.05-.6-.11-.84-.16-.69a2.37,2.37,0,0,0-.09.51Z"/><path class="cls-6" d="M153,72.57c2.5-.42,4.87-1.2,7.33-1.59a20.41,20.41,0,0,1,3.94-.22,18.53,18.53,0,0,1,2.68.31,16.47,16.47,0,0,1,2.7.83,16.23,16.23,0,0,1,2.42,1.27A14.85,14.85,0,0,1,174,74.61l.38.35c.12.11.23.23.34.34s.4.42.55.61l.39.47c.1.13.17.24.22.31a12.16,12.16,0,0,1,1.48,2.69,10.13,10.13,0,0,1,.68,3.38,10.66,10.66,0,0,1-.33,2.88c-.1.37-.19.68-.26.89l-.13.38a14.59,14.59,0,0,1-2.49,4.14,18.94,18.94,0,0,1-3.65,3.27A21.07,21.07,0,0,1,167,96.5a22,22,0,0,1-4.62,1.16l-1.1.13-1.1.06-.56,0H159c-.37,0-.74,0-1.11,0-.73-.07-1.47-.12-2.2-.26a20.21,20.21,0,0,1-2.16-.45,25.1,25.1,0,0,1-9.67-5.06,30.13,30.13,0,0,1-5.35-5.87,38.18,38.18,0,0,1-3.84-6.94,20.51,20.51,0,0,1-1.26-4.6,28.22,28.22,0,0,1-.27-4.77,24.71,24.71,0,0,1,1.52-7.76,21.67,21.67,0,0,1,1.75-3.55,18,18,0,0,1,1.1-1.64c.18-.27.41-.51.61-.76s.41-.52.65-.75a2.81,2.81,0,0,0,.46-.52,2.48,2.48,0,0,0,.15-.55c-.18,0-.42-.09-.54,0a14.87,14.87,0,0,0-4.2,5.46c-.07.15-.15.3-.21.46l-.18.47-.36.94-.31,1c-.11.31-.22.63-.31,1a23.11,23.11,0,0,0-.9,8.14,32.93,32.93,0,0,0,1.53,8c.11.35.28.68.42,1a31.45,31.45,0,0,0,7.22,10.44,32.66,32.66,0,0,0,5.32,4.18,23.8,23.8,0,0,0,6.24,2.78,23.15,23.15,0,0,0,7.55.77c.63,0,1.26-.13,1.89-.2.32,0,.63-.11.94-.17l.93-.18.92-.26c.31-.08.61-.16.91-.27.6-.22,1.2-.41,1.78-.68l.88-.39.87-.44.44-.22c.14-.07.28-.16.42-.24l.84-.48c.28-.17.54-.36.81-.54s.55-.35.8-.56a16.39,16.39,0,0,0,1.5-1.26c.26-.26.55-.51.81-.78s.52-.54.76-.83.47-.59.7-.89a10.34,10.34,0,0,0,.62-1,12.27,12.27,0,0,0,1.67-8.4,11.58,11.58,0,0,0-1.53-4A16.24,16.24,0,0,0,175,73.85a14.91,14.91,0,0,0-4.33-2.95,13.87,13.87,0,0,0-2.5-.84,13.67,13.67,0,0,0-2.62-.3c-.43,0-.86,0-1.29,0s-.86,0-1.29,0a15.91,15.91,0,0,0-4.41.46,34.89,34.89,0,0,0-4.17,1.33C152.64,72.16,152.08,72.73,153,72.57Z"/><path class="cls-6" d="M152.87,77.51a9.66,9.66,0,0,1-.5-1c-.08-.16-.16-.32-.23-.49l-.2-.5c-.1-.24-.21-.48-.29-.73a11.86,11.86,0,0,1-.48-2.7c0-.2,0-.41,0-.61s-.05-.4-.06-.6,0-.52,0-.78a3.35,3.35,0,0,1,.13-.77c.06-.16.34-.09.61.07s.53.41.51.67c0,1,0,1.89.06,2.87a3.83,3.83,0,0,0,.17.87c.07.29.2.57.29.86s.24.61.36.92.27.61.44.89l.31.54.34.5c.18.26.39.5.58.74a6.86,6.86,0,0,0,.65.67c.18.15.38.29.57.42s.42.24.62.36l.27.14c.34.19.4.32.32.62,0,.07,0,.15-.05.21-.09.23-.33.31-.63.2a6.29,6.29,0,0,1-2.38-1.64c-.26-.26-.48-.56-.72-.84s-.43-.6-.62-.91Z"/><path class="cls-6" d="M195.74,65c.12-.34.24-.69.33-1,0-.18.1-.35.14-.53l.11-.54c.06-.26.06-.53.1-.79a14.07,14.07,0,0,0,.16-2.83,3.38,3.38,0,0,0-.07-.63,6.17,6.17,0,0,0-.11-.62c-.07-.26-.15-.52-.22-.78a2.91,2.91,0,0,1-.15-.79c0-.35,1.14-.27,1.33.39a9.6,9.6,0,0,1,.29,3.54c-.07.7-.06,1.43-.16,2.15-.05.39-.14.77-.21,1.16s-.19.77-.31,1.14l-.22.69-.26.68c-.12.34-.29.67-.43,1l-.48,1c-.13.25-.25.51-.36.76s-.25.5-.39.75a1.52,1.52,0,0,1-.18.33c-.26.38-.41.46-.7.35l-.2-.08c-.21-.11-.25-.38-.12-.67.39-.87.87-1.71,1.27-2.6.17-.32.29-.67.44-1s.27-.68.37-1Z"/><line class="cls-7" x1="176.27" y1="10.18" x2="176.8" y2="15.59"/><path class="cls-8" d="M176.27,10.18a4,4,0,0,1,.76,1.3,5.22,5.22,0,0,1,.3,1.33,4.85,4.85,0,0,1,0,1.37,3.9,3.9,0,0,1-.49,1.41A3.94,3.94,0,0,1,176,14.3a5.22,5.22,0,0,1-.3-1.33,5.72,5.72,0,0,1,0-1.37A4.15,4.15,0,0,1,176.27,10.18Z"/><line class="cls-7" x1="200.25" y1="8.27" x2="200.77" y2="13.67"/><path class="cls-8" d="M200.25,8.27A4.08,4.08,0,0,1,201,9.56a5.62,5.62,0,0,1,.27,2.7,3.93,3.93,0,0,1-.5,1.41,4,4,0,0,1-.76-1.29,5.46,5.46,0,0,1-.26-2.7A3.93,3.93,0,0,1,200.25,8.27Z"/><path class="cls-6" d="M192.05,18.73a15,15,0,0,0-.94,3,.29.29,0,0,1-.49.16c-.94-.93-2.89-2.73-2.63-3.54s2.22-.53,3.5-.51A.62.62,0,0,1,192.05,18.73Z"/><path class="cls-7" d="M190.44,27l2.13-.21"/><path class="cls-9" d="M192.58,27.28c-.58,1.08-1.27,1.14-2.05.2a4.2,4.2,0,0,1-.11-1.06c.58-1.09,1.27-1.16,2.05-.22A3.29,3.29,0,0,1,192.58,27.28Z"/><path class="cls-5" d="M-2.21,180.6a26.65,26.65,0,0,0,27.14,16.08c6.21-.76,12.26-4,15.64-9.28-.76,4.16,1.13,8.15,3.78,11,5.36,5.7,14,7.79,22.11,5.42a24.68,24.68,0,0,0,5.71,16.44c11,12.76,33.62,14.77,47.53,6.25,10-6.11,16.83-16.62,19.87-27.92,2.93-10.93,2.37-23.16-3.45-32.87-5-8.39-13.51-14.25-22.59-17.88-12.08-4.84-24.61-5.53-36.29-11.34-12.15-6.05-23.18-16.52-25.3-29.92-.77-4.82.11-8.87.26-13.74-2.94,4.27-6,8.62-10.13,11.7s-9.76,4.73-14.62,2.93c-6.78-2.5-9.69-10.31-11.8-17.22A226,226,0,0,0-3.64,157.56C-4.59,165.28-5.1,173.38-2.21,180.6Z"/><path class="cls-6" d="M86.6,175.24c2.45-.65,4.8-1.5,7.25-2.11a35.11,35.11,0,0,1,3.94-.75,45.46,45.46,0,0,1,5.65-.41,16.24,16.24,0,0,1,5.1.7,7.5,7.5,0,0,1,2.42,1.24,6.24,6.24,0,0,1,1.82,2.26,7.46,7.46,0,0,1,.62,3.31,9.46,9.46,0,0,1-.51,2.86,13.09,13.09,0,0,1-.48,1.25,15.83,15.83,0,0,1-2.75,4,26.71,26.71,0,0,1-3.74,3.28c-2.59,1.91-5.48,3.45-8.26,5.2a30,30,0,0,0-7.12,5.81c-.32.35-.59.76-.89,1.14s-.53.81-.75,1.24A14.63,14.63,0,0,0,87.75,207l-.21.7-.16.71c-.06.23-.09.47-.13.72s-.08.48-.09.72a12.07,12.07,0,0,0,.07,2.94,9.17,9.17,0,0,0,1.66,4,8.19,8.19,0,0,0,3.44,2.69,11.27,11.27,0,0,0,4.22.85,16.73,16.73,0,0,0,4.19-.47,45.35,45.35,0,0,0,4.78-1.42,29,29,0,0,0,4.55-2,24.13,24.13,0,0,0,10.49-12.62,3.38,3.38,0,0,0,.2-.72,1.94,1.94,0,0,0-.12-.58c-.16.1-.41.14-.47.28a42.54,42.54,0,0,1-3.22,6,18.07,18.07,0,0,1-2.43,3.09,24.85,24.85,0,0,1-6.49,4.74,24.38,24.38,0,0,1-7.69,2.43c-.35,0-.7.13-1.06.17a13.71,13.71,0,0,1-6.12-.46,7.88,7.88,0,0,1-2.61-1.53,6.88,6.88,0,0,1-.54-.54c-.16-.19-.31-.39-.47-.59a4.65,4.65,0,0,1-.41-.64l-.19-.32-.16-.35a8.46,8.46,0,0,1-.72-3.1,11,11,0,0,1,.35-3.19,14.26,14.26,0,0,1,2.92-5.65A26.36,26.36,0,0,1,96.79,198c2-1.38,4.15-2.62,6.26-3.95a48.55,48.55,0,0,0,6.32-4.43,18.54,18.54,0,0,0,3-3.32,13.31,13.31,0,0,0,1.86-4,10.62,10.62,0,0,0,.32-4.38,7.63,7.63,0,0,0-1.81-4,8.28,8.28,0,0,0-1.7-1.43,11.26,11.26,0,0,0-2-1,15.39,15.39,0,0,0-5.18-.9,24.48,24.48,0,0,0-5.14.49,21.68,21.68,0,0,1-2.52.41,26.77,26.77,0,0,0-8.42,2.5,6,6,0,0,0-1.6,1C86,175.27,86.14,175.36,86.6,175.24Z"/><path class="cls-4" d="M23.46,166l.41-.23.21-.12.22-.1.87-.38.9-.29c.3-.1.62-.14.93-.22a13.15,13.15,0,0,1,3.76-.19,12.56,12.56,0,0,1,6.82,2.87,6.76,6.76,0,0,1,.68.63c.21.23.44.44.64.69a12.79,12.79,0,0,1,1.1,1.52,13.67,13.67,0,0,1,1.51,3.43,16.08,16.08,0,0,1,.33,7.49A16.26,16.26,0,0,1,41,184a15.19,15.19,0,0,1-1.78,3.31,19.48,19.48,0,0,1-7.07,6.12,22.42,22.42,0,0,1-5.07,1.91,23.11,23.11,0,0,1-2.78.52c-.47.05-.95.07-1.43.11l-.72.06h-.73c-.49,0-1,0-1.46,0l-1.46-.14a14.75,14.75,0,0,1-1.46-.23,12.45,12.45,0,0,1-1.45-.3l-1.43-.38c-.47-.14-.93-.32-1.4-.48l-.69-.25-.68-.3-.67-.3a5.16,5.16,0,0,1-.67-.32l-1.29-.7c-.22-.11-.42-.24-.63-.37l-.61-.4-.61-.39c-.21-.13-.39-.29-.58-.43l-1.15-.88-1.06-1c-.17-.16-.36-.31-.52-.47l-.48-.51c-.32-.35-.66-.67-.95-1l-.86-1.07A10.41,10.41,0,0,1,.55,185c-.24-.37-.5-.73-.73-1.1l-.63-1.14-.31-.56-.25-.57A23.78,23.78,0,0,1-3,177.14,29.85,29.85,0,0,1-3.72,173l-.11-.93-.06-.9c-.06-.57-.06-1.12-.09-1.63-.06-2.05,0-3.53,0-4.26.1-1.83.28-3.92.54-6.17.13-1.13.29-2.3.45-3.5s.32-2.43.52-3.67c.74-5,1.69-10.26,2.75-15.06s2.14-9.16,3-12.36c.42-1.6.83-2.91,1.1-3.86l.48-1.63q3-9.93,7-19.54c.31-.8.65-1.6,1-2.39l1-2.39c.34-.79.71-1.58,1.06-2.37l.18-.4.07-.17s0,0,0,0v0l0,.08.11.34.16.5.21.62c.29.83.59,1.65.91,2.47a33.37,33.37,0,0,0,2.26,4.76,20.1,20.1,0,0,0,3.08,4.1,13.72,13.72,0,0,0,4.25,2.94,12.33,12.33,0,0,0,5.07,1.06,16,16,0,0,0,2.58-.21c.42-.09.84-.16,1.26-.27l.62-.17.61-.19A19.48,19.48,0,0,0,41,105.59a25.55,25.55,0,0,0,4-3.23,41.58,41.58,0,0,0,3.34-3.81c.52-.66,1-1.33,1.52-2l.73-1L51,95l.38-.56s0,0,0,0v.39l0,.45-.15,1.9c-.12,1.47-.24,2.95-.27,4.45a27,27,0,0,0,.23,4.49l.08.56.11.55.22,1.1.11.55.06.28.08.27.31,1.08a34.05,34.05,0,0,0,3.66,8.17,40.78,40.78,0,0,0,5.5,7,52.59,52.59,0,0,0,8.92,7.4,60.33,60.33,0,0,0,10.22,5.44,84.53,84.53,0,0,0,11,3.58c3.72,1,7.46,1.84,11.15,2.84,2.68.72,5.34,1.49,7.94,2.43a63.06,63.06,0,0,1,7.59,3.3,52.46,52.46,0,0,1,7,4.37,40.79,40.79,0,0,1,6.08,5.51,34.84,34.84,0,0,1,4.73,6.66,35.8,35.8,0,0,1,3,7.59,44.65,44.65,0,0,1,1.19,16.33,49.38,49.38,0,0,1-5.94,18.8,44,44,0,0,1-13,14.72c-.56.4-1.15.76-1.72,1.14-.28.19-.58.36-.88.53s-.59.35-.89.51c-.61.31-1.21.63-1.84.9-.32.14-.62.29-.94.42l-1,.38a38.12,38.12,0,0,1-8,2.07,42.88,42.88,0,0,1-16.38-.74,38.55,38.55,0,0,1-7.73-2.78A31.16,31.16,0,0,1,75,222.58a23.38,23.38,0,0,1-5.19-6.24,24,24,0,0,1-2.68-7.65c-.18-.95-.26-2-.38-2.86,0-.37-.11-.71-.17-1l-.18-1a5.9,5.9,0,0,0-.33,1.62,24.5,24.5,0,0,0,4.15,13.34,28.75,28.75,0,0,0,10.88,9,37.3,37.3,0,0,0,3.8,1.61,40.68,40.68,0,0,0,3.94,1.19c1.33.34,2.68.59,4,.81s2.72.36,4.08.44,2.81.1,4.21.07a42,42,0,0,0,4.19-.35,38.33,38.33,0,0,0,8.17-2c.33-.11.66-.25,1-.38l1-.4c.64-.3,1.28-.57,1.9-.91.31-.16.63-.31.93-.49l.91-.53c.61-.36,1.18-.76,1.77-1.14a42.14,42.14,0,0,0,6.41-5.43,48.75,48.75,0,0,0,9.27-13.91,53.72,53.72,0,0,0,4.4-16.14c.07-.74.12-1.49.16-2.23s0-1.5,0-2.25a45.89,45.89,0,0,0-.45-6.52,40.71,40.71,0,0,0-1.47-6.38l-.52-1.55-.62-1.52c-.19-.52-.44-1-.67-1.5s-.46-1-.74-1.46a33.17,33.17,0,0,0-3.64-5.45,42.87,42.87,0,0,0-9.74-8.68,57.54,57.54,0,0,0-11.66-5.84c-8.62-3.25-17.75-4.68-26.37-7.56a67.51,67.51,0,0,1-6.33-2.48c-1-.49-2-1-3-1.51s-2-1.1-3-1.68a55.86,55.86,0,0,1-5.58-3.85l-.67-.52-.33-.26-.32-.27-1.29-1.11-.32-.27-.31-.29-.61-.59-.62-.58-.3-.29-.29-.31A40.25,40.25,0,0,1,57,118.4a33.56,33.56,0,0,1-3.68-8L53,109.36l-.15-.53-.11-.53c-.14-.72-.31-1.44-.42-2.16a25.52,25.52,0,0,1-.26-4.38c0-1.47.14-3,.26-4.45l.09-1.12,0-.56.06-1c.05-.72.07-1.39.1-2.08l.08-2.06L51,93l-1.43,2c-.59.85-1.19,1.67-1.81,2.49a39.06,39.06,0,0,1-4,4.57,28.66,28.66,0,0,1-2.3,2,21.66,21.66,0,0,1-2.54,1.6,19.14,19.14,0,0,1-2.76,1.19,15.37,15.37,0,0,1-2.91.68,12.81,12.81,0,0,1-3.71,0,5.74,5.74,0,0,1-.9-.18,8.31,8.31,0,0,1-.89-.25,5.8,5.8,0,0,1-.87-.34l-.42-.18-.21-.09L26,106.3l-.8-.45c-.27-.16-.51-.36-.77-.53L24,105l-.35-.3c-.23-.21-.48-.4-.7-.63a18.06,18.06,0,0,1-2.36-2.92,29,29,0,0,1-1.83-3.33c-.52-1.16-1-2.34-1.43-3.55-.23-.6-.42-1.21-.63-1.82l-.38-1.21-.54-1.73c-.3-2.16-.87.17-1.36,1l-1.06,2.31c-2.45,5.42-4.73,10.93-6.71,16.54A220.43,220.43,0,0,0-2.1,142.5c-1,5.61-1.88,11.24-2.54,16.91A81.27,81.27,0,0,0-5.18,168c0,1.43.06,2.87.18,4.3a38.41,38.41,0,0,0,.64,4.28,26.3,26.3,0,0,0,4.2,9.68,5.25,5.25,0,0,0,.4.53l.41.52c.29.34.54.71.85,1l.91,1c.16.16.3.33.47.48l.49.44,1,.9,1.06.81c.69.56,1.46,1,2.2,1.5a6.65,6.65,0,0,0,.58.33l.59.32c.39.2.77.44,1.18.61l1.22.54.61.26.63.22,1.27.43,1.29.34a25.29,25.29,0,0,0,2.62.52l.33.05.33,0,.66.06c.45,0,.89.09,1.33.09h2l.66-.06a21.25,21.25,0,0,0,5.24-1,25,25,0,0,0,9.16-5.11,18.79,18.79,0,0,0,3-3.45,16.35,16.35,0,0,0,2-4.15,17.27,17.27,0,0,0,.44-9.13,14.88,14.88,0,0,0-1.69-4.3c-.2-.33-.4-.66-.63-1-.12-.16-.22-.32-.34-.47l-.37-.45c-.24-.3-.53-.56-.8-.84a8.07,8.07,0,0,0-.87-.78,13.21,13.21,0,0,0-8.56-2.86,12.2,12.2,0,0,0-4.7,1.08,9.92,9.92,0,0,0-1.46.85l-.53.37-.38.35c-.44.42-.59.61-.44.57a3.47,3.47,0,0,0,.45-.26C22.75,166.48,23,166.25,23.46,166Z"/><path class="cls-6" d="M65.92,178.72a23,23,0,0,0-7.3-2.18,25.37,25.37,0,0,0-4.1-.29,22.22,22.22,0,0,0-2.83.26,17.77,17.77,0,0,0-2.92.79,18.55,18.55,0,0,0-2.65,1.27A16.18,16.18,0,0,0,44,180.06l-.43.36c-.14.12-.26.24-.38.36s-.46.43-.64.64l-.45.5c-.13.14-.21.26-.27.33a10.92,10.92,0,0,0-1.74,3,10.61,10.61,0,0,0-.72,3.91,11.3,11.3,0,0,0,.49,3.25c.12.41.24.74.33,1l.16.4a15.84,15.84,0,0,0,2.8,4.43,20.14,20.14,0,0,0,3.94,3.38,22.44,22.44,0,0,0,4.47,2.22A23.59,23.59,0,0,0,56.38,205l1.15.13c.38,0,.76,0,1.15.06l.57,0,.58,0c.38,0,.76,0,1.15,0,.76-.07,1.52-.12,2.28-.26s1.51-.29,2.25-.46a27.83,27.83,0,0,0,10.1-5.12,29.7,29.7,0,0,0,5.8-5.89,24.68,24.68,0,0,0,3.79-7.35,42.62,42.62,0,0,0,1.17-4.84,25.29,25.29,0,0,0-1.15-13.08,23.11,23.11,0,0,0-1.79-3.76c-.34-.61-.76-1.17-1.15-1.75-.2-.29-.44-.54-.65-.82s-.43-.55-.68-.8a3.24,3.24,0,0,0-.54-.51,2.14,2.14,0,0,0-.56-.17c0,.19-.08.44,0,.56a33.81,33.81,0,0,1,3.65,5.67c.07.14.16.28.23.43l.2.45.41.89.33.92a7.84,7.84,0,0,1,.29.94,27.67,27.67,0,0,1,1,8A21.37,21.37,0,0,1,84.26,186c-.15.33-.25.67-.38,1a29.63,29.63,0,0,1-7.12,10.16,26.6,26.6,0,0,1-11.4,6.16,24.78,24.78,0,0,1-7.12.72c-.6,0-1.19-.09-1.79-.14-.3,0-.59-.09-.89-.13l-.88-.15-.87-.21a7.92,7.92,0,0,1-.87-.23c-.57-.18-1.16-.34-1.71-.57l-.85-.35-.82-.41-.41-.21c-.14-.07-.26-.16-.39-.24l-.78-.49c-.26-.16-.5-.36-.75-.54a7.72,7.72,0,0,1-.72-.56c-.45-.41-.93-.78-1.35-1.23-.24-.25-.49-.49-.72-.76s-.44-.52-.65-.8-.4-.56-.6-.84-.39-.56-.56-.86a14.53,14.53,0,0,1-.93-1.74,12.28,12.28,0,0,1-.67-1.84,10,10,0,0,1-.31-3.89A9.52,9.52,0,0,1,42,184.1a11.06,11.06,0,0,1,2.63-3,16.77,16.77,0,0,1,4.18-2.41,20.32,20.32,0,0,1,2.27-.79c.77-.2,1.56-.39,2.37-.52a9.74,9.74,0,0,1,1.21-.14,7.08,7.08,0,0,1,1.22,0,69.51,69.51,0,0,1,8.36,1.5C66,179.24,66.76,179.15,65.92,178.72Z"/><path class="cls-6" d="M64.78,183.16c.18-.26.38-.51.55-.79l.25-.42.23-.43c.11-.21.17-.44.27-.66a10.51,10.51,0,0,0,.77-2.4,2.74,2.74,0,0,0,.06-.56,5.43,5.43,0,0,0,0-.57c0-.24-.05-.47-.06-.71a2.89,2.89,0,0,1,0-.72c0-.15.32-.18.61-.08a.85.85,0,0,1,.63.64,7.47,7.47,0,0,1-.46,3.21c-.1.3-.21.61-.3.93a7.83,7.83,0,0,1-.34.92c-.13.34-.31.65-.47,1s-.36.62-.57.91l-.37.54-.41.52c-.2.26-.45.49-.66.74l-.7.7c-.19.17-.37.36-.54.54l-.56.53a1.38,1.38,0,0,1-.26.22c-.35.24-.5.25-.73,0a1.06,1.06,0,0,1-.15-.15.47.47,0,0,1,.09-.64c.59-.61,1.24-1.16,1.83-1.8.23-.22.43-.47.65-.71s.41-.5.59-.77Z"/><path class="cls-6" d="M21.73,171.86c-.08-.38-.18-.77-.23-1.16,0-.2-.07-.39-.1-.59l-.06-.58a8.36,8.36,0,0,1-.09-.86,15.23,15.23,0,0,1,.18-3l.18-1.32c0-.28.08-.57.13-.85a3.83,3.83,0,0,1,.29-.8c.17-.32,1.09.45.94,1-.24,1-.43,2.09-.61,3.18a7.88,7.88,0,0,0,0,2c0,.37.08.74.11,1.11s.12.74.2,1.1l.16.67.2.66c.1.33.24.65.36,1a10.08,10.08,0,0,0,.44.94c.14.23.29.45.45.67l.49.62c.07.09.16.17.23.26.28.33.29.49.11.75a1.13,1.13,0,0,1-.12.18c-.16.18-.42.16-.68-.08a7.85,7.85,0,0,1-1.81-2.59c-.18-.36-.31-.74-.46-1.11s-.26-.77-.35-1.16Z"/><line class="cls-7" x1="42.56" y1="116.62" x2="42.03" y2="122.03"/><path class="cls-8" d="M42.56,116.62a4.1,4.1,0,0,1,.49,1.41,5.73,5.73,0,0,1,0,1.37,5.12,5.12,0,0,1-.3,1.33A4,4,0,0,1,42,122a4.15,4.15,0,0,1-.49-1.42,5.49,5.49,0,0,1,.26-2.7A4.12,4.12,0,0,1,42.56,116.62Z"/><line class="cls-7" x1="18.59" y1="114.7" x2="18.06" y2="120.11"/><path class="cls-8" d="M18.59,114.7a4.1,4.1,0,0,1,.49,1.41,5.73,5.73,0,0,1,0,1.37,5.29,5.29,0,0,1-.3,1.34,3.94,3.94,0,0,1-.76,1.29,3.9,3.9,0,0,1-.49-1.41,4.86,4.86,0,0,1,0-1.37,5.29,5.29,0,0,1,.3-1.34A3.94,3.94,0,0,1,18.59,114.7Z"/><path class="cls-6" d="M26.79,125.17a15.88,15.88,0,0,1,.94,3,.28.28,0,0,0,.48.15c.95-.93,2.89-2.73,2.64-3.54-.3-1-2.22-.52-3.51-.5A.61.61,0,0,0,26.79,125.17Z"/><path class="cls-7" d="M28.39,133.39l-2.13-.22"/><path class="cls-9" d="M26.36,132.63c.78-.93,1.47-.86,2.05.22a3.79,3.79,0,0,1-.11,1.06c-.78,1-1.47.88-2.05-.19A3.37,3.37,0,0,1,26.36,132.63Z"/></g><g class="cls-2"><path class="cls-3" d="M3.85,51.12A225.74,225.74,0,0,0-15.44-16.22C-17.54-9.3-20.45-1.5-27.23,1c-4.87,1.79-10.46.15-14.63-2.93S-49-9.36-52-13.63c.15,4.88,1,8.93.26,13.74C-53.85,13.52-64.88,24-77,30c-11.68,5.81-24.21,6.51-36.29,11.34-9.08,3.63-17.57,9.5-22.59,17.89-5.82,9.71-6.38,21.94-3.44,32.87,3,11.3,9.88,21.8,19.86,27.91,13.91,8.52,36.52,6.52,47.54-6.24a24.73,24.73,0,0,0,5.7-16.44c8.07,2.37,16.75.28,22.11-5.42,2.65-2.82,4.54-6.82,3.78-11,3.38,5.25,9.43,8.52,15.65,9.27A26.62,26.62,0,0,0,2.42,74.17C5.31,66.94,4.8,58.85,3.85,51.12Z"/><path class="cls-4" d="M-66.13,99a27.48,27.48,0,0,1-1.68,7.46,25.29,25.29,0,0,1-1.63,3.45,22.66,22.66,0,0,1-2.17,3.13c-.39.5-.85,1-1.27,1.43-.21.23-.46.44-.68.67s-.45.45-.69.66l-.72.63-.37.31-.37.3-.76.59c-.25.19-.52.37-.78.56a34,34,0,0,1-3.26,2A35.37,35.37,0,0,1-84,121.84a37.68,37.68,0,0,1-6.55,2c-.68.16-1.4.26-2.14.4l-1.13.16-.59.07-.59.06a41.17,41.17,0,0,1-5.05.21A40.59,40.59,0,0,1-111.12,123a34.85,34.85,0,0,1-5.49-2.18c-.89-.45-1.75-.94-2.59-1.47l-1.24-.82c-.42-.27-.8-.58-1.2-.87a41.62,41.62,0,0,1-8.15-8.08A48.11,48.11,0,0,1-135,101a52.83,52.83,0,0,1-2.78-7.18c-.59-2-.91-3.41-1.06-4.13a55.27,55.27,0,0,1-.93-6.08,49.54,49.54,0,0,1-.1-7.14A42,42,0,0,1-138.78,69a35,35,0,0,1,2.56-7,33.58,33.58,0,0,1,3.61-5.79c.64-.84,1.31-1.6,1.94-2.31s1.26-1.34,1.87-1.89a41.58,41.58,0,0,1,4.33-3.62l.52-.38.53-.36,1.06-.72c.73-.45,1.45-.92,2.2-1.34a50.45,50.45,0,0,1,4.56-2.37,69.48,69.48,0,0,1,9.66-3.59c6.61-2,13.44-3.28,20.1-5.38a63,63,0,0,0,9.38-3.73,59.75,59.75,0,0,0,8.62-5.25,51.19,51.19,0,0,0,7.55-6.71,40.18,40.18,0,0,0,5.88-8.23,14.8,14.8,0,0,0,.69-1.38l.65-1.4L-52.52,6A14.77,14.77,0,0,0-52,4.58l.43-1.48.11-.37c0-.13,0-.25.08-.38l.15-.76c.1-.5.21-1,.3-1.52l.1-.76.08-.77a37.24,37.24,0,0,0,0-6.16l-.24-3-.06-.82,0-.31v-.29h0l.38.54.57.82c.62.87,1.25,1.73,1.91,2.58A39,39,0,0,0-44-3.34,20.21,20.21,0,0,0-33.66,2a15.46,15.46,0,0,0,3,.2,13.49,13.49,0,0,0,2.95-.44,13.38,13.38,0,0,0,5.18-2.85,18.85,18.85,0,0,0,3.69-4.57,35.23,35.23,0,0,0,2.5-5.27c.34-.9.67-1.81,1-2.73l.27-.81.07-.23,0-.11,0,.11.73,1.64c.39.87.77,1.75,1.14,2.63A226.93,226.93,0,0,1-2.35,21.09,250.45,250.45,0,0,1,3.9,53.79a61,61,0,0,1,.46,9.92,36.5,36.5,0,0,1-.54,4.91,27.85,27.85,0,0,1-1.31,4.75l-.21.57c-.08.19-.17.38-.25.56l-.51,1.12a4.58,4.58,0,0,1-.28.54L1,76.7c-.2.35-.39.72-.61,1.06a25,25,0,0,1-3,3.84,25.34,25.34,0,0,1-8,5.63,25.63,25.63,0,0,1-7.85,2.17,20,20,0,0,1-2,.13,19.79,19.79,0,0,1-2,0,23,23,0,0,1-4-.59A22.3,22.3,0,0,1-34,85.63,19.91,19.91,0,0,1-37.14,83a18.18,18.18,0,0,1-2.45-3.21,16.29,16.29,0,0,1-2.19-7.68A15,15,0,0,1-40,64.38a11.94,11.94,0,0,1,2.46-3.1,11,11,0,0,1,3.35-2.09,12.82,12.82,0,0,1,3.86-.88c.33,0,.66,0,1,0l1,0,1,.15c.33.06.64.15,1,.23a4.15,4.15,0,0,1,.68.22c.22.08.45.15.67.24l.63.3.31.13.29.16.48.23c.15.07.31.14.45.22l.86.47c-.16-.2-.3-.42-.45-.64l-.26-.33a1.91,1.91,0,0,0-.35-.27,11,11,0,0,0-3.19-1.5,11.86,11.86,0,0,0-3.51-.49,12.81,12.81,0,0,0-6.82,1.94l-.75.5-.7.58-.35.29-.31.33c-.21.22-.44.42-.63.66a13.44,13.44,0,0,0-2,3,15.77,15.77,0,0,0-1.43,7,17.22,17.22,0,0,0,2.13,8,19.82,19.82,0,0,0,5.49,6.14,23.08,23.08,0,0,0,7.59,3.65,21.69,21.69,0,0,0,4.16.72,18.52,18.52,0,0,0,2.11.1,18.52,18.52,0,0,0,2.11-.08A26.6,26.6,0,0,0-3.87,83.79,25.43,25.43,0,0,0,1.46,77.3a26.36,26.36,0,0,0,2.93-7.86,41.19,41.19,0,0,0,.79-8.36,80.65,80.65,0,0,0-.47-8.37c-.15-1.47-.39-3-.58-4.42A228.86,228.86,0,0,0-8.72-2c-.8-2.15-1.67-4.27-2.53-6.39l-1.34-3.17c-.21-.53-.44-1.05-.68-1.57L-14-14.81l-1.12-2.5-.07-.15a1.31,1.31,0,0,0-.05.15l-.1.32-.21.64L-16-15l-.34,1-.28.81c-.19.53-.38,1.07-.59,1.59a32.75,32.75,0,0,1-3,6.06A15.85,15.85,0,0,1-24.67-.8a11.58,11.58,0,0,1-6.14,1.91,15.63,15.63,0,0,1-6.4-1.33,20.32,20.32,0,0,1-5.55-3.59,36.78,36.78,0,0,1-4.43-4.81c-.67-.86-1.32-1.75-2-2.65L-49.7-12l-.92-1.33L-52.48-16l.12,2.79,0,.69.05.72.08,1.2.24,3a37.9,37.9,0,0,1,.08,5.83A31.3,31.3,0,0,1-55.12,9.21a40.21,40.21,0,0,1-6.82,9.43l-.5.53c-.17.18-.36.34-.53.51l-1.06,1c-.35.35-.73.65-1.1,1l-1.11.95c-.78.6-1.54,1.22-2.33,1.8l-1.2.85-.6.42-.61.4A56.41,56.41,0,0,1-84.84,32.7c-4.89,1.61-10,2.7-15,3.94-2.89.71-5.78,1.44-8.63,2.34a63.66,63.66,0,0,0-8.38,3.25,54.11,54.11,0,0,0-7.48,4.34,42.51,42.51,0,0,0-6.6,5.6,37.08,37.08,0,0,0-5.25,6.9,36.21,36.21,0,0,0-3.4,7.95A45.07,45.07,0,0,0-141,84.11a54.78,54.78,0,0,0,4.44,16.56,50.64,50.64,0,0,0,5.26,9.07,42.2,42.2,0,0,0,7.19,7.68c.34.28.67.57,1,.83l1.06.79.53.39.55.36,1.11.73a33.39,33.39,0,0,0,4.73,2.41,35.55,35.55,0,0,0,5,1.63,38.2,38.2,0,0,0,5.2.9,53.46,53.46,0,0,0,10.43,0,39.87,39.87,0,0,0,4.47-.68c.74-.14,1.47-.34,2.2-.52l1.08-.31c.37-.11.73-.22,1.08-.35l1.07-.37,1.06-.41.52-.21.52-.23,1-.47a34.76,34.76,0,0,0,3.94-2.24,29.29,29.29,0,0,0,3.58-2.78l.43-.37.4-.4c.27-.27.54-.53.8-.81.5-.56,1-1.11,1.48-1.71a23.55,23.55,0,0,0,4.09-8,22.49,22.49,0,0,0,.86-4.68,18.12,18.12,0,0,0,0-2.83c0-.6-.11-.84-.16-.69a2.37,2.37,0,0,0-.09.51Z"/></g><g class="cls-2"><path class="cls-5" d="M216.41-33.86a26.65,26.65,0,0,0,27.14,16.07c6.22-.75,12.26-4,15.64-9.28-.76,4.16,1.13,8.16,3.78,11,5.36,5.69,14,7.79,22.11,5.41a24.79,24.79,0,0,0,5.71,16.45c11,12.75,33.63,14.76,47.53,6.24,10-6.11,16.83-16.62,19.87-27.91,2.93-10.94,2.37-23.16-3.44-32.88-5-8.39-13.52-14.25-22.6-17.88-12.08-4.83-24.61-5.53-36.29-11.34-12.15-6-23.17-16.51-25.3-29.92-.76-4.82.11-8.86.26-13.74-2.94,4.27-6,8.62-10.13,11.71s-9.76,4.72-14.62,2.92c-6.78-2.5-9.69-10.31-11.8-17.22A225.63,225.63,0,0,0,215-56.91C214-49.19,213.53-41.09,216.41-33.86Z"/><path class="cls-4" d="M242.08-48.43l.41-.24.21-.12.22-.09.87-.38.9-.29a7.39,7.39,0,0,1,.93-.22,12.8,12.8,0,0,1,3.76-.19,12.47,12.47,0,0,1,6.82,2.86,6.86,6.86,0,0,1,.68.64c.21.23.44.44.64.68a13.66,13.66,0,0,1,1.1,1.52,14.41,14.41,0,0,1,1.52,3.43,16.25,16.25,0,0,1,.32,7.5,16.18,16.18,0,0,1-.81,2.85,15,15,0,0,1-1.78,3.31A19.48,19.48,0,0,1,250.8-21a22.44,22.44,0,0,1-5.07,1.92,24.82,24.82,0,0,1-2.78.51c-.47.05-.95.08-1.43.12l-.72.05h-.73c-.48,0-1,0-1.46,0l-1.46-.14a14.71,14.71,0,0,1-1.46-.22c-.48-.1-1-.16-1.44-.3l-1.44-.38c-.47-.15-.93-.33-1.4-.49-.23-.08-.46-.15-.69-.25l-.68-.3-.67-.3c-.23-.1-.45-.19-.67-.31l-1.29-.7c-.22-.11-.42-.25-.63-.38l-.61-.4-.61-.39c-.21-.13-.39-.29-.58-.43l-1.15-.87-1.06-.95c-.17-.16-.36-.31-.52-.48l-.48-.51c-.32-.34-.65-.67-1-1L220-28.37a11.7,11.7,0,0,1-.79-1.1c-.24-.37-.5-.72-.73-1.1l-.63-1.13c-.1-.19-.21-.37-.3-.56l-.26-.58a24.25,24.25,0,0,1-1.6-4.49,30,30,0,0,1-.75-4.11l-.11-.94-.06-.89c0-.58-.06-1.13-.09-1.64,0-2.05,0-3.53.06-4.26.09-1.83.27-3.92.53-6.17.13-1.13.29-2.3.45-3.5s.32-2.43.52-3.67c.74-5,1.69-10.25,2.75-15.05s2.14-9.16,3-12.36c.42-1.61.83-2.91,1.1-3.86l.48-1.64q3-9.92,7-19.54c.32-.8.65-1.6,1-2.39l1-2.39,1.06-2.37.18-.4.07-.16s0,0,0,0v0l0,.08.11.34.16.51.21.62c.29.82.59,1.64.91,2.46a34.61,34.61,0,0,0,2.26,4.77,20.37,20.37,0,0,0,3.08,4.1,13.89,13.89,0,0,0,4.25,2.94,12.32,12.32,0,0,0,5.07,1,14.81,14.81,0,0,0,2.58-.21c.42-.09.85-.15,1.26-.27l.62-.16.62-.2a20.23,20.23,0,0,0,4.61-2.23,26.63,26.63,0,0,0,3.94-3.24,41.46,41.46,0,0,0,3.34-3.8c.52-.67,1-1.34,1.52-2l.73-1,.4-.57.38-.56s0,0,0,0v.39l0,.45-.15,1.9c-.12,1.48-.24,3-.27,4.45a27,27,0,0,0,.23,4.49l.08.56.11.55.22,1.11.11.55.06.27.08.27.31,1.08a34.27,34.27,0,0,0,3.66,8.17,41.3,41.3,0,0,0,5.51,7,53.07,53.07,0,0,0,8.91,7.4A61.79,61.79,0,0,0,299-75.93a86,86,0,0,0,11,3.57c3.72,1,7.46,1.85,11.15,2.84,2.68.72,5.35,1.49,7.94,2.44a62.32,62.32,0,0,1,7.59,3.29,52.46,52.46,0,0,1,7,4.37,41.34,41.34,0,0,1,6.08,5.51,34.48,34.48,0,0,1,4.73,6.67,35.38,35.38,0,0,1,3,7.59,44.82,44.82,0,0,1,1.2,16.32,49.4,49.4,0,0,1-5.95,18.8,44,44,0,0,1-13,14.72c-.56.41-1.15.76-1.72,1.14a9.77,9.77,0,0,1-.88.53c-.3.17-.59.35-.89.51-.61.31-1.21.64-1.84.91-.31.14-.62.29-.94.41l-1,.38a38.14,38.14,0,0,1-8,2.08,44.4,44.4,0,0,1-8.23.41,44,44,0,0,1-8.15-1.16,38.55,38.55,0,0,1-7.73-2.78,31,31,0,0,1-6.82-4.51,23.5,23.5,0,0,1-5.19-6.23,24.13,24.13,0,0,1-2.68-7.65c-.18-1-.26-2-.38-2.86,0-.38-.11-.72-.17-1l-.17-1A5.9,5.9,0,0,0,284.73-9a24.46,24.46,0,0,0,4.15,13.33,28.74,28.74,0,0,0,10.88,9,37.3,37.3,0,0,0,3.8,1.61,40.68,40.68,0,0,0,3.94,1.19c1.33.34,2.68.59,4,.82s2.72.36,4.08.43,2.81.11,4.21.08,2.8-.15,4.19-.35a39,39,0,0,0,8.17-2c.33-.11.66-.25,1-.38s.66-.25,1-.4c.64-.29,1.28-.57,1.9-.9.31-.17.63-.32.93-.5l.92-.53c.6-.35,1.17-.76,1.76-1.14a41,41,0,0,0,6.41-5.43,48.84,48.84,0,0,0,9.27-13.9,53.59,53.59,0,0,0,4.4-16.14c.07-.75.12-1.49.16-2.24s0-1.5.05-2.25a47.42,47.42,0,0,0-.46-6.52A41.24,41.24,0,0,0,358-41.59l-.52-1.55-.61-1.52c-.2-.51-.45-1-.68-1.49s-.46-1-.74-1.47a33.09,33.09,0,0,0-3.64-5.44,42.63,42.63,0,0,0-9.74-8.68,57.76,57.76,0,0,0-11.65-5.85c-8.63-3.25-17.76-4.67-26.38-7.56a67.51,67.51,0,0,1-6.33-2.48c-1-.48-2-1-3-1.51s-2-1.1-3-1.67a59.42,59.42,0,0,1-5.58-3.85l-.67-.52-.33-.26-.32-.28-1.29-1.1-.32-.28-.31-.29L282.3-88l-.61-.59-.31-.29-.29-.31a39.72,39.72,0,0,1-5.51-6.91,33.23,33.23,0,0,1-3.69-8l-.31-1-.15-.53-.11-.54c-.14-.72-.31-1.44-.42-2.16a26.51,26.51,0,0,1-.26-4.37c0-1.47.14-3,.26-4.45l.09-1.13,0-.56.06-1c.05-.72.08-1.4.1-2.09l.08-2.06-1.69,2.45-1.43,2.06c-.59.84-1.19,1.67-1.81,2.48a37.5,37.5,0,0,1-4,4.57,26.74,26.74,0,0,1-2.3,2,21.74,21.74,0,0,1-2.54,1.61,18.63,18.63,0,0,1-2.76,1.18,15.37,15.37,0,0,1-2.91.68,12.81,12.81,0,0,1-3.71,0c-.3,0-.6-.11-.9-.18a6.52,6.52,0,0,1-.89-.26,6.36,6.36,0,0,1-.86-.33L245-108l-.21-.09-.2-.11-.81-.46c-.27-.16-.51-.36-.76-.53l-.38-.27-.35-.31a8.17,8.17,0,0,1-.69-.63,18,18,0,0,1-2.37-2.91,29.08,29.08,0,0,1-1.82-3.34c-.53-1.16-1-2.34-1.44-3.55-.22-.6-.42-1.21-.63-1.82l-.38-1.21-.54-1.73c-.3-2.16-.87.18-1.36,1L232-121.57c-2.45,5.42-4.73,10.92-6.71,16.53A220.43,220.43,0,0,0,216.52-72c-1.05,5.61-1.88,11.25-2.54,16.91a81.44,81.44,0,0,0-.54,8.56c0,1.44.06,2.87.18,4.31a41.69,41.69,0,0,0,.64,4.28,26.42,26.42,0,0,0,4.2,9.67c.12.19.26.36.4.54l.41.52c.29.34.54.7.85,1l.91,1c.16.16.3.33.47.48l.49.45,1,.89,1.06.81a25.09,25.09,0,0,0,2.2,1.5c.19.13.38.23.58.34l.59.31c.39.21.77.44,1.18.62l1.22.53c.21.09.41.19.62.26l.63.22,1.26.44,1.29.33a22.9,22.9,0,0,0,2.62.52l.33,0,.33,0,.66.06c.45,0,.89.09,1.34.1h1.33c.22,0,.45,0,.67,0l.66-.06a22.22,22.22,0,0,0,5.24-1A25.19,25.19,0,0,0,256-23.41a18.47,18.47,0,0,0,3-3.45A16.45,16.45,0,0,0,261-31a17.31,17.31,0,0,0,.44-9.14,14.82,14.82,0,0,0-1.69-4.29c-.2-.33-.4-.66-.63-1s-.22-.32-.34-.47l-.37-.45a10.72,10.72,0,0,0-.8-.85,7,7,0,0,0-.87-.77,13.22,13.22,0,0,0-8.56-2.87,12.1,12.1,0,0,0-4.69,1.08,9.56,9.56,0,0,0-1.47.85l-.53.38c-.15.12-.27.25-.38.35-.44.42-.59.61-.44.56a2.48,2.48,0,0,0,.45-.26A9.94,9.94,0,0,1,242.08-48.43Z"/></g><g class="cls-2"><path class="cls-5" d="M-2.21-33.86A26.65,26.65,0,0,0,24.93-17.79c6.21-.75,12.26-4,15.64-9.28-.76,4.16,1.13,8.16,3.78,11,5.36,5.69,14,7.79,22.11,5.41A24.69,24.69,0,0,0,72.17,5.77c11,12.75,33.62,14.76,47.53,6.24,10-6.11,16.83-16.62,19.87-27.91,2.93-10.94,2.37-23.16-3.45-32.88-5-8.39-13.51-14.25-22.59-17.88C101.45-71.49,88.92-72.19,77.24-78c-12.15-6-23.18-16.51-25.3-29.92-.77-4.82.11-8.86.26-13.74-2.94,4.27-6,8.62-10.13,11.71s-9.76,4.72-14.62,2.92c-6.78-2.5-9.69-10.31-11.8-17.22A226,226,0,0,0-3.64-56.91C-4.59-49.19-5.1-41.09-2.21-33.86Z"/><path class="cls-6" d="M86.6-39.23c2.45-.64,4.8-1.5,7.25-2.11a38.14,38.14,0,0,1,3.94-.74,45.41,45.41,0,0,1,5.65-.42,16.53,16.53,0,0,1,5.1.7A7.72,7.72,0,0,1,111-40.56a6.33,6.33,0,0,1,1.82,2.26A7.5,7.5,0,0,1,113.4-35a9.52,9.52,0,0,1-.51,2.86,11.2,11.2,0,0,1-.48,1.24,15.83,15.83,0,0,1-2.75,4,26.08,26.08,0,0,1-3.74,3.28c-2.59,1.91-5.48,3.45-8.26,5.21a29.75,29.75,0,0,0-7.12,5.8c-.32.36-.59.76-.89,1.15s-.53.81-.75,1.24a14.25,14.25,0,0,0-1.15,2.66l-.21.7-.16.71c-.06.24-.09.48-.13.72s-.08.48-.09.72a12.06,12.06,0,0,0,.07,2.94,9.12,9.12,0,0,0,1.66,4A8.21,8.21,0,0,0,92.33,5a11.46,11.46,0,0,0,4.22.84,16.73,16.73,0,0,0,4.19-.47,41.06,41.06,0,0,0,4.78-1.42,28.07,28.07,0,0,0,4.55-2,24.1,24.1,0,0,0,6.35-5.38,24,24,0,0,0,4.14-7.24,3.23,3.23,0,0,0,.2-.72,1.87,1.87,0,0,0-.12-.57c-.16.09-.41.13-.47.27a42.54,42.54,0,0,1-3.22,6,17.33,17.33,0,0,1-2.43,3.09A24.63,24.63,0,0,1,108,2.05a24.38,24.38,0,0,1-7.69,2.43c-.35,0-.7.13-1.06.17a13.71,13.71,0,0,1-6.12-.46,7.88,7.88,0,0,1-2.61-1.53A6.75,6.75,0,0,1,90,2.13l-.47-.6A5.23,5.23,0,0,1,89.13.9L88.94.57,88.78.23a8.56,8.56,0,0,1-.72-3.11,11.08,11.08,0,0,1,.35-3.19,14.26,14.26,0,0,1,2.92-5.65,26.36,26.36,0,0,1,5.46-4.72c2-1.38,4.15-2.62,6.26-3.95a47.6,47.6,0,0,0,6.32-4.43,18.48,18.48,0,0,0,3-3.31,13.54,13.54,0,0,0,1.86-4,10.63,10.63,0,0,0,.32-4.38,7.66,7.66,0,0,0-1.81-4,9,9,0,0,0-1.7-1.43,11.26,11.26,0,0,0-2-1,15.64,15.64,0,0,0-5.18-.9,24.48,24.48,0,0,0-5.14.49,24.08,24.08,0,0,1-2.52.42,26.49,26.49,0,0,0-8.42,2.49,6,6,0,0,0-1.6,1C86-39.2,86.14-39.11,86.6-39.23Z"/><path class="cls-4" d="M23.46-48.43l.41-.24.21-.12.22-.09.87-.38.9-.29a7.39,7.39,0,0,1,.93-.22A12.8,12.8,0,0,1,30.76-50a12.47,12.47,0,0,1,6.82,2.86,6.86,6.86,0,0,1,.68.64c.21.23.44.44.64.68A13.66,13.66,0,0,1,40-44.26a14,14,0,0,1,1.51,3.43,16.12,16.12,0,0,1,.33,7.5A16.18,16.18,0,0,1,41-30.48a15,15,0,0,1-1.78,3.31A19.48,19.48,0,0,1,32.18-21a22.44,22.44,0,0,1-5.07,1.92,25.24,25.24,0,0,1-2.78.51c-.47.05-.95.08-1.43.12l-.72.05h-.73c-.49,0-1,0-1.46,0l-1.46-.14a14.71,14.71,0,0,1-1.46-.22c-.48-.1-1-.16-1.45-.3l-1.43-.38c-.47-.15-.93-.33-1.4-.49-.23-.08-.46-.15-.69-.25l-.68-.3-.67-.3a6.85,6.85,0,0,1-.67-.31l-1.29-.7c-.22-.11-.42-.25-.63-.38l-.61-.4L6.94-23c-.21-.13-.39-.29-.58-.43l-1.15-.87L4.15-25.3c-.17-.16-.36-.31-.52-.48l-.48-.51c-.32-.34-.66-.67-.95-1l-.86-1.06a11.7,11.7,0,0,1-.79-1.1c-.24-.37-.5-.72-.73-1.1L-.81-31.7l-.31-.56-.25-.58A23.54,23.54,0,0,1-3-37.33a30,30,0,0,1-.75-4.11l-.11-.94-.06-.89c-.06-.58-.06-1.13-.09-1.64-.06-2.05,0-3.53,0-4.26.1-1.83.28-3.92.54-6.17.13-1.13.29-2.3.45-3.5s.32-2.43.52-3.67c.74-5,1.69-10.25,2.75-15.05s2.14-9.16,3-12.36c.42-1.61.83-2.91,1.1-3.86l.48-1.64q3-9.92,7-19.54c.31-.8.65-1.6,1-2.39l1-2.39c.34-.79.71-1.58,1.06-2.37l.18-.4.07-.16s0,0,0,0v0l0,.08.11.34.16.51.21.62c.29.82.59,1.64.91,2.46a33.48,33.48,0,0,0,2.26,4.77,20.37,20.37,0,0,0,3.08,4.1,13.89,13.89,0,0,0,4.25,2.94,12.32,12.32,0,0,0,5.07,1,15,15,0,0,0,2.58-.21c.42-.09.84-.15,1.26-.27l.62-.16.61-.2A19.84,19.84,0,0,0,41-108.87a26.2,26.2,0,0,0,4-3.24,41.46,41.46,0,0,0,3.34-3.8c.52-.67,1-1.34,1.52-2l.73-1,.4-.57.38-.56s0,0,0,0v.39l0,.45-.15,1.9c-.12,1.48-.24,3-.27,4.45a27,27,0,0,0,.23,4.49l.08.56.11.55.22,1.11.11.55.06.27.08.27.31,1.08a33.88,33.88,0,0,0,3.66,8.17,41.24,41.24,0,0,0,5.5,7,53.55,53.55,0,0,0,8.92,7.4,61.79,61.79,0,0,0,10.22,5.44,86,86,0,0,0,11,3.57c3.72,1,7.46,1.85,11.15,2.84,2.68.72,5.34,1.49,7.94,2.44a63,63,0,0,1,7.59,3.29,52.46,52.46,0,0,1,7,4.37,41.34,41.34,0,0,1,6.08,5.51,34.91,34.91,0,0,1,4.73,6.67,35.38,35.38,0,0,1,3,7.59,44.6,44.6,0,0,1,1.19,16.32,49.38,49.38,0,0,1-5.94,18.8,44,44,0,0,1-13,14.72c-.56.41-1.15.76-1.72,1.14a9.77,9.77,0,0,1-.88.53c-.3.17-.59.35-.89.51-.61.31-1.21.64-1.84.91-.32.14-.62.29-.94.41l-1,.38a38.14,38.14,0,0,1-8,2.08,44.4,44.4,0,0,1-8.23.41,44,44,0,0,1-8.15-1.16,38.55,38.55,0,0,1-7.73-2.78A30.8,30.8,0,0,1,75,8.11a23.5,23.5,0,0,1-5.19-6.23,24.13,24.13,0,0,1-2.68-7.65c-.18-1-.26-2-.38-2.86,0-.38-.11-.72-.17-1l-.18-1A5.9,5.9,0,0,0,66.11-9,24.46,24.46,0,0,0,70.26,4.28a28.66,28.66,0,0,0,10.88,9,37.3,37.3,0,0,0,3.8,1.61,40.68,40.68,0,0,0,3.94,1.19c1.33.34,2.68.59,4,.82s2.72.36,4.08.43,2.81.11,4.21.08,2.8-.15,4.19-.35a39,39,0,0,0,8.17-2c.33-.11.66-.25,1-.38s.66-.25,1-.4c.64-.29,1.28-.57,1.9-.9.31-.17.63-.32.93-.5l.91-.53c.61-.35,1.18-.76,1.77-1.14a41,41,0,0,0,6.41-5.43,48.84,48.84,0,0,0,9.27-13.9,53.88,53.88,0,0,0,4.4-16.14c.07-.75.12-1.49.16-2.24s0-1.5,0-2.25a45.89,45.89,0,0,0-.45-6.52,41.24,41.24,0,0,0-1.47-6.38l-.52-1.55-.62-1.52c-.19-.51-.44-1-.67-1.49s-.46-1-.74-1.47a33.09,33.09,0,0,0-3.64-5.44,42.63,42.63,0,0,0-9.74-8.68,57.58,57.58,0,0,0-11.66-5.85c-8.62-3.25-17.75-4.67-26.37-7.56a67.51,67.51,0,0,1-6.33-2.48c-1-.48-2-1-3-1.51s-2-1.1-3-1.67a59.42,59.42,0,0,1-5.58-3.85l-.67-.52-.33-.26-.32-.28-1.29-1.1-.32-.28-.31-.29L63.68-88l-.62-.59-.3-.29-.29-.31A40.25,40.25,0,0,1,57-96.07a33.2,33.2,0,0,1-3.68-8l-.31-1-.15-.53-.11-.54c-.14-.72-.31-1.44-.42-2.16A25.46,25.46,0,0,1,52-112.7c0-1.47.14-3,.26-4.45l.09-1.13,0-.56.06-1c.05-.72.07-1.4.1-2.09l.08-2.06L51-121.52l-1.43,2.06c-.59.84-1.19,1.67-1.81,2.48a37.5,37.5,0,0,1-4,4.57,26.74,26.74,0,0,1-2.3,2,21.74,21.74,0,0,1-2.54,1.61,19.09,19.09,0,0,1-2.76,1.18,15.37,15.37,0,0,1-2.91.68,12.81,12.81,0,0,1-3.71,0c-.3,0-.6-.11-.9-.18a6.52,6.52,0,0,1-.89-.26,7.06,7.06,0,0,1-.87-.33l-.42-.19-.21-.09-.21-.11-.8-.46c-.27-.16-.51-.36-.77-.53l-.37-.27-.35-.31c-.23-.21-.48-.39-.7-.63a18,18,0,0,1-2.36-2.91,29.15,29.15,0,0,1-1.83-3.34c-.52-1.16-1-2.34-1.43-3.55-.23-.6-.42-1.21-.63-1.82l-.38-1.21-.54-1.73c-.3-2.16-.87.18-1.36,1l-1.06,2.32c-2.45,5.42-4.73,10.92-6.71,16.53A220.43,220.43,0,0,0-2.1-72c-1,5.61-1.88,11.25-2.54,16.91a81.44,81.44,0,0,0-.54,8.56c0,1.44.06,2.87.18,4.31a39.11,39.11,0,0,0,.64,4.28,26.25,26.25,0,0,0,4.2,9.67c.12.19.26.36.4.54l.41.52c.29.34.54.7.85,1l.91,1c.16.16.3.33.47.48l.49.45,1,.89,1.06.81a25.09,25.09,0,0,0,2.2,1.5c.19.13.38.23.58.34l.59.31c.39.21.77.44,1.18.62l1.22.53c.21.09.4.19.61.26l.63.22,1.27.44L15-18a22.9,22.9,0,0,0,2.62.52l.33,0,.33,0,.66.06c.45,0,.89.09,1.33.1H21.6c.22,0,.45,0,.67,0l.66-.06a22.22,22.22,0,0,0,5.24-1,25.19,25.19,0,0,0,9.16-5.12,18.47,18.47,0,0,0,3-3.45,16.45,16.45,0,0,0,2-4.14,17.31,17.31,0,0,0,.44-9.14,14.82,14.82,0,0,0-1.69-4.29c-.2-.33-.4-.66-.63-1s-.22-.32-.34-.47l-.37-.45a10.72,10.72,0,0,0-.8-.85,7,7,0,0,0-.87-.77,13.22,13.22,0,0,0-8.56-2.87,12.2,12.2,0,0,0-4.7,1.08,9.92,9.92,0,0,0-1.46.85l-.53.38c-.15.12-.27.25-.38.35-.44.42-.59.61-.44.56a3.47,3.47,0,0,0,.45-.26A9.94,9.94,0,0,1,23.46-48.43Z"/></g></svg>
